 http://www.freeimgsharing.com/images/36775101516969561609.jpg


In order to gain influence over their North Carolina district, two CEOs seize an opportunity to oust long-term congressman Cam Brady by putting up a rival candidate. Their man: naive Marty Huggins, director of the local Tourism Center. 

 
http://www.imdb.com/title/tt1790886/


 General
 Complete name : The Campaign 2012 CAM READNFO x264 AAC-UNiQUE.mp4
 Format : MPEG-4
 Format profile : Base Media
 Codec ID : isom
 File size : 693 MiB
 Duration : 1h 9mn
 Overall bit rate mode : Variable
 Overall bit rate : 1 385 Kbps
 Encoded date : UTC 2012-09-23 14:16:30

 Video
 ID : 1
 Format : AVC
 Format/Info : Advanced Video Codec
 Format profile : High@L4.1
 Format settings, CABAC : Yes
 Format settings, ReFrames : 3 frames
 Codec ID : avc1
 Codec ID/Info : Advanced Video Coding
 Duration : 1h 9mn
 Bit rate mode : Variable
 Bit rate : 1 251 Kbps
 Nominal bit rate : 1 184 Kbps
 Maximum bit rate : 40.0 Mbps
 Width : 720 pixels
 Height : 288 pixels
 Display aspect ratio : 2.500
 Frame rate mode : Constant
 Frame rate : 25.000 fps
 Color space : YUV
 Chroma subsampling : 4:2:0
 Bit depth : 8 bits
 Scan type : Progressive
 Bits/(Pixel*Frame) : 0.241
 Stream size : 626 MiB (90%)
 Writing library : x264 core 128 r2216 198a7ea

 Audio
 ID : 2
 Format : AAC
 Format/Info : Advanced Audio Codec
 Format profile : LC
 Codec ID : 40
 Duration : 1h 9mn
 Bit rate mode : Variable
 Bit rate : 132 Kbps
 Maximum bit rate : 141 Kbps
 Channel(s) : 2 channels
 Channel positions : Front: L R
 Sampling rate : 44.1 KHz
 Compression mode : Lossy
 Stream size : 65.3 MiB (9%)
 Language : English
 Encoded date : UTC 2012-09-23 14:16:31


 Source : 26K - Thanks! 

 Release Notes

 So i cut the parts out that showed no video at the following points 00.12.26 - 00.13.49, 00.14.52 - 00.16.22 and 00.47.20 - 00.48.34, the start seems missing a bit also as it just kicks straight in to the film i dunno by how much, so i just tweaked gamma, sat, yuv, contrast, brightness then sharpened.

 
http://www.freeimgsharing.com/images/50292751944625242462.png 
http://www.freeimgsharing.com/images/51852716289484867843.png 
http://www.freeimgsharing.com/images/88067317412945281437.png 
http://www.freeimgsharing.com/images/84021761007096328761.png

